%TF.GenerationSoftware,KiCad,Pcbnew,7.0.7*%
%TF.CreationDate,2023-09-16T00:44:09+09:00*%
%TF.ProjectId,StickLess,53746963-6b4c-4657-9373-2e6b69636164,rev?*%
%TF.SameCoordinates,Original*%
%TF.FileFunction,Copper,L1,Top*%
%TF.FilePolarity,Positive*%
%FSLAX46Y46*%
G04 Gerber Fmt 4.6, Leading zero omitted, Abs format (unit mm)*
G04 Created by KiCad (PCBNEW 7.0.7) date 2023-09-16 00:44:09*
%MOMM*%
%LPD*%
G01*
G04 APERTURE LIST*
%TA.AperFunction,SMDPad,CuDef*%
%ADD10R,1.600000X3.200000*%
%TD*%
%TA.AperFunction,SMDPad,CuDef*%
%ADD11R,3.200000X1.600000*%
%TD*%
%TA.AperFunction,ComponentPad*%
%ADD12C,1.800000*%
%TD*%
%TA.AperFunction,ComponentPad*%
%ADD13C,2.000000*%
%TD*%
%TA.AperFunction,ViaPad*%
%ADD14C,0.800000*%
%TD*%
%TA.AperFunction,Conductor*%
%ADD15C,0.250000*%
%TD*%
G04 APERTURE END LIST*
D10*
%TO.P,RZ1,1,GP0*%
%TO.N,Net-(RZ1-GP0)*%
X2565000Y-141000000D03*
%TO.P,RZ1,2,GP1*%
%TO.N,Net-(RZ1-GP1)*%
X5105000Y-141000000D03*
%TO.P,RZ1,3,GP2*%
%TO.N,Net-(RZ1-GP2)*%
X7645000Y-141000000D03*
%TO.P,RZ1,4,GP3*%
%TO.N,Net-(RZ1-GP3)*%
X10185000Y-141000000D03*
%TO.P,RZ1,5,GP4*%
%TO.N,Net-(RZ1-GP4)*%
X12725000Y-141000000D03*
%TO.P,RZ1,6,GP5*%
%TO.N,Net-(RZ1-GP5)*%
X15265000Y-141000000D03*
%TO.P,RZ1,7,GP6*%
%TO.N,Net-(RZ1-GP6)*%
X17805000Y-141000000D03*
%TO.P,RZ1,8,GP7*%
%TO.N,Net-(RZ1-GP7)*%
X20345000Y-141000000D03*
%TO.P,RZ1,9,GP8*%
%TO.N,Net-(RZ1-GP8)*%
X22885000Y-141000000D03*
D11*
%TO.P,RZ1,10,GP9*%
%TO.N,Net-(RZ1-GP9)*%
X24475000Y-144920000D03*
%TO.P,RZ1,11,GP10*%
%TO.N,Net-(RZ1-GP10)*%
X24475000Y-147460000D03*
%TO.P,RZ1,12,GP11*%
%TO.N,Net-(RZ1-GP11)*%
X24475000Y-150000000D03*
%TO.P,RZ1,13,GP12*%
%TO.N,Net-(RZ1-GP12)*%
X24475000Y-152540000D03*
%TO.P,RZ1,14,GP13*%
%TO.N,Net-(RZ1-GP13)*%
X24475000Y-155080000D03*
D10*
%TO.P,RZ1,15,GP14*%
%TO.N,Net-(RZ1-GP14)*%
X22885000Y-159000000D03*
%TO.P,RZ1,16,GP15*%
%TO.N,Net-(RZ1-GP15)*%
X20345000Y-159000000D03*
%TO.P,RZ1,17,GP26*%
%TO.N,Net-(RZ1-GP26)*%
X17805000Y-159000000D03*
%TO.P,RZ1,18,GP27*%
%TO.N,Net-(RZ1-GP27)*%
X15265000Y-159000000D03*
%TO.P,RZ1,19,GP28*%
%TO.N,unconnected-(RZ1-GP28-Pad19)*%
X12725000Y-159000000D03*
%TO.P,RZ1,20,GP29*%
%TO.N,unconnected-(RZ1-GP29-Pad20)*%
X10185000Y-159000000D03*
%TO.P,RZ1,21,3V3*%
%TO.N,unconnected-(RZ1-3V3-Pad21)*%
X7645000Y-159000000D03*
%TO.P,RZ1,22,5V*%
%TO.N,unconnected-(RZ1-5V-Pad22)*%
X2565000Y-159000000D03*
%TO.P,RZ1,23,GND*%
%TO.N,Net-(RZ1-GND)*%
X5105000Y-159000000D03*
%TD*%
D12*
%TO.P,B1(A)1,1,1*%
%TO.N,Net-(RZ1-GND)*%
X165000000Y-105050000D03*
D13*
%TO.P,B1(A)1,2,2*%
%TO.N,Net-(RZ1-GP6)*%
X169130000Y-102300000D03*
%TD*%
D12*
%TO.P,LEFT1,1,1*%
%TO.N,Net-(RZ1-GND)*%
X84000000Y-74050000D03*
D13*
%TO.P,LEFT1,2,2*%
%TO.N,Net-(RZ1-GP5)*%
X88130000Y-71300000D03*
%TD*%
D12*
%TO.P,RIGHT1,1,1*%
%TO.N,Net-(RZ1-GND)*%
X140000000Y-89050000D03*
D13*
%TO.P,RIGHT1,2,2*%
%TO.N,Net-(RZ1-GP4)*%
X144130000Y-86300000D03*
%TD*%
D12*
%TO.P,L1(L)1,1,1*%
%TO.N,Net-(RZ1-GP13)*%
X220000000Y-94050000D03*
D13*
%TO.P,L1(L)1,2,2*%
%TO.N,Net-(RZ1-GND)*%
X224130000Y-91300000D03*
%TD*%
D12*
%TO.P,B2(B)1,1,1*%
%TO.N,Net-(RZ1-GND)*%
X192000000Y-93050000D03*
D13*
%TO.P,B2(B)1,2,2*%
%TO.N,Net-(RZ1-GP7)*%
X196130000Y-90300000D03*
%TD*%
D12*
%TO.P,S2(START)1,1,1*%
%TO.N,Net-(RZ1-GND)*%
X110000000Y-28050000D03*
D13*
%TO.P,S2(START)1,2,2*%
%TO.N,Net-(RZ1-GP1)*%
X114130000Y-25300000D03*
%TD*%
D12*
%TO.P,L2(LB)1,1,1*%
%TO.N,Net-(RZ1-GND)*%
X223010000Y-65050000D03*
D13*
%TO.P,L2(LB)1,2,2*%
%TO.N,Net-(RZ1-GP9)*%
X227140000Y-62300000D03*
%TD*%
D12*
%TO.P,DOWN1,1,1*%
%TO.N,Net-(RZ1-GND)*%
X114000000Y-74050000D03*
D13*
%TO.P,DOWN1,2,2*%
%TO.N,Net-(RZ1-GP3)*%
X118130000Y-71300000D03*
%TD*%
D12*
%TO.P,S1(BACK)1,1,1*%
%TO.N,Net-(RZ1-GND)*%
X170000000Y-49050000D03*
D13*
%TO.P,S1(BACK)1,2,2*%
%TO.N,Net-(RZ1-GP0)*%
X174130000Y-46300000D03*
%TD*%
D12*
%TO.P,A2(CAPTURE)1,1,1*%
%TO.N,Net-(RZ1-GP15)*%
X60000000Y-28050000D03*
D13*
%TO.P,A2(CAPTURE)1,2,2*%
%TO.N,Net-(RZ1-GND)*%
X64130000Y-25300000D03*
%TD*%
D12*
%TO.P,B4(Y)1,1,1*%
%TO.N,Net-(RZ1-GP11)*%
X195000000Y-64050000D03*
D13*
%TO.P,B4(Y)1,2,2*%
%TO.N,Net-(RZ1-GND)*%
X199130000Y-61300000D03*
%TD*%
D12*
%TO.P,UP1,1,1*%
%TO.N,Net-(RZ1-GND)*%
X155000000Y-141050000D03*
D13*
%TO.P,UP1,2,2*%
%TO.N,Net-(RZ1-GP2)*%
X159130000Y-138300000D03*
%TD*%
D12*
%TO.P,R3(RS)1,1,1*%
%TO.N,Net-(RZ1-GP27)*%
X197000000Y-37050000D03*
D13*
%TO.P,R3(RS)1,2,2*%
%TO.N,Net-(RZ1-GND)*%
X201130000Y-34300000D03*
%TD*%
D12*
%TO.P,R1(R)1,1,1*%
%TO.N,Net-(RZ1-GP12)*%
X248000000Y-99050000D03*
D13*
%TO.P,R1(R)1,2,2*%
%TO.N,Net-(RZ1-GND)*%
X252130000Y-96300000D03*
%TD*%
D12*
%TO.P,A1(GUIDE)1,1,1*%
%TO.N,Net-(RZ1-GP14)*%
X85000000Y-28050000D03*
D13*
%TO.P,A1(GUIDE)1,2,2*%
%TO.N,Net-(RZ1-GND)*%
X89130000Y-25300000D03*
%TD*%
D12*
%TO.P,L3(LS)1,1,1*%
%TO.N,Net-(RZ1-GP26)*%
X187870000Y-119750000D03*
D13*
%TO.P,L3(LS)1,2,2*%
%TO.N,Net-(RZ1-GND)*%
X192000000Y-117000000D03*
%TD*%
D12*
%TO.P,R2(RB)1,1,1*%
%TO.N,Net-(RZ1-GND)*%
X250000000Y-70050000D03*
D13*
%TO.P,R2(RB)1,2,2*%
%TO.N,Net-(RZ1-GP8)*%
X254130000Y-67300000D03*
%TD*%
D12*
%TO.P,B3(X)1,1,1*%
%TO.N,Net-(RZ1-GP10)*%
X169000000Y-76050000D03*
D13*
%TO.P,B3(X)1,2,2*%
%TO.N,Net-(RZ1-GND)*%
X173130000Y-73300000D03*
%TD*%
D14*
%TO.N,Net-(RZ1-GP14)*%
X40000000Y-159000000D03*
%TO.N,Net-(RZ1-GND)*%
X140000000Y-105000000D03*
X155000000Y-172000000D03*
X99000000Y-49000000D03*
%TO.N,Net-(RZ1-GP15)*%
X36000000Y-162000000D03*
%TO.N,Net-(RZ1-GP6)*%
X125000000Y-132000000D03*
%TO.N,Net-(RZ1-GP10)*%
X120000000Y-100000000D03*
X120000000Y-147000000D03*
%TO.N,Net-(RZ1-GP11)*%
X207000000Y-164000000D03*
%TO.N,Net-(RZ1-GP3)*%
X118000000Y-126000000D03*
%TO.N,Net-(RZ1-GP13)*%
X120000000Y-174000000D03*
X120000000Y-155000000D03*
X220000000Y-174000000D03*
%TO.N,Net-(RZ1-GP9)*%
X235000000Y-162000000D03*
%TO.N,Net-(RZ1-GP26)*%
X188000000Y-168000000D03*
%TO.N,Net-(RZ1-GP5)*%
X88000000Y-130000000D03*
%TO.N,Net-(RZ1-GP12)*%
X248000000Y-166000000D03*
%TO.N,Net-(RZ1-GP4)*%
X125000000Y-128000000D03*
%TO.N,Net-(RZ1-GP1)*%
X45000000Y-78000000D03*
%TD*%
D15*
%TO.N,Net-(RZ1-GP14)*%
X34000000Y-163000000D02*
X34000000Y-160000000D01*
X24000000Y-164000000D02*
X33000000Y-164000000D01*
X35000000Y-159000000D02*
X40000000Y-159000000D01*
X34000000Y-160000000D02*
X35000000Y-159000000D01*
X22885000Y-162885000D02*
X24000000Y-164000000D01*
X33000000Y-164000000D02*
X34000000Y-163000000D01*
X22885000Y-159000000D02*
X22885000Y-162885000D01*
%TO.N,Net-(RZ1-GND)*%
X140000000Y-154000000D02*
X137000000Y-151000000D01*
X5105000Y-159000000D02*
X5105000Y-167105000D01*
X10000000Y-172000000D02*
X155000000Y-172000000D01*
X5105000Y-167105000D02*
X10000000Y-172000000D01*
X157050000Y-105050000D02*
X158000000Y-105050000D01*
X114000000Y-83000000D02*
X120050000Y-89050000D01*
X99000000Y-49000000D02*
X99000000Y-74050000D01*
X157950000Y-105000000D02*
X158000000Y-105050000D01*
X155000000Y-141050000D02*
X155000000Y-152000000D01*
X114000000Y-74050000D02*
X99000000Y-74050000D01*
X99000000Y-74050000D02*
X84000000Y-74050000D01*
X153000000Y-154000000D02*
X140000000Y-154000000D01*
X120050000Y-89050000D02*
X140000000Y-89050000D01*
X137000000Y-125000000D02*
X157000000Y-105000000D01*
X155000000Y-152000000D02*
X153000000Y-154000000D01*
X158000000Y-105050000D02*
X165000000Y-105050000D01*
X140000000Y-105000000D02*
X157950000Y-105000000D01*
X157000000Y-105000000D02*
X157050000Y-105050000D01*
X137000000Y-151000000D02*
X137000000Y-125000000D01*
X114000000Y-74050000D02*
X114000000Y-83000000D01*
%TO.N,Net-(RZ1-GP15)*%
X36000000Y-165000000D02*
X36000000Y-162000000D01*
X35000000Y-166000000D02*
X36000000Y-165000000D01*
X22000000Y-166000000D02*
X35000000Y-166000000D01*
X20345000Y-159000000D02*
X20345000Y-164345000D01*
X20345000Y-164345000D02*
X22000000Y-166000000D01*
%TO.N,Net-(RZ1-GP6)*%
X21000000Y-132000000D02*
X17805000Y-135195000D01*
X125000000Y-132000000D02*
X21000000Y-132000000D01*
X17805000Y-135195000D02*
X17805000Y-141000000D01*
%TO.N,Net-(RZ1-GP7)*%
X208000000Y-102170000D02*
X196130000Y-90300000D01*
X202000000Y-158000000D02*
X208000000Y-152000000D01*
X23000000Y-134000000D02*
X126000000Y-134000000D01*
X20345000Y-136655000D02*
X23000000Y-134000000D01*
X138000000Y-158000000D02*
X202000000Y-158000000D01*
X208000000Y-152000000D02*
X208000000Y-102170000D01*
X131000000Y-151000000D02*
X138000000Y-158000000D01*
X131000000Y-139000000D02*
X131000000Y-151000000D01*
X126000000Y-134000000D02*
X131000000Y-139000000D01*
X20345000Y-141000000D02*
X20345000Y-136655000D01*
%TO.N,Net-(RZ1-GP10)*%
X162950000Y-76050000D02*
X169000000Y-76050000D01*
X153000000Y-86000000D02*
X162950000Y-76050000D01*
X146000000Y-100000000D02*
X153000000Y-93000000D01*
X153000000Y-93000000D02*
X153000000Y-86000000D01*
X120000000Y-100000000D02*
X146000000Y-100000000D01*
X119540000Y-147460000D02*
X120000000Y-147000000D01*
X24475000Y-147460000D02*
X119540000Y-147460000D01*
%TO.N,Net-(RZ1-GP11)*%
X24475000Y-150000000D02*
X121000000Y-150000000D01*
X121000000Y-150000000D02*
X135000000Y-164000000D01*
X135000000Y-164000000D02*
X207000000Y-164000000D01*
%TO.N,Net-(RZ1-GP3)*%
X10185000Y-141000000D02*
X10185000Y-132815000D01*
X17000000Y-126000000D02*
X118000000Y-126000000D01*
X10185000Y-132815000D02*
X17000000Y-126000000D01*
%TO.N,Net-(RZ1-GP13)*%
X24475000Y-155080000D02*
X119920000Y-155080000D01*
X119920000Y-155080000D02*
X120000000Y-155000000D01*
X120000000Y-174000000D02*
X220000000Y-174000000D01*
%TO.N,Net-(RZ1-GP9)*%
X127000000Y-149000000D02*
X127000000Y-153000000D01*
X136000000Y-162000000D02*
X235000000Y-162000000D01*
X122920000Y-144920000D02*
X127000000Y-149000000D01*
X24475000Y-144920000D02*
X122920000Y-144920000D01*
X127000000Y-153000000D02*
X136000000Y-162000000D01*
%TO.N,Net-(RZ1-GP26)*%
X21000000Y-168000000D02*
X188000000Y-168000000D01*
X17805000Y-159000000D02*
X17805000Y-164805000D01*
X17805000Y-164805000D02*
X21000000Y-168000000D01*
%TO.N,Net-(RZ1-GP5)*%
X15265000Y-133735000D02*
X15265000Y-141000000D01*
X19000000Y-130000000D02*
X15265000Y-133735000D01*
X88000000Y-130000000D02*
X19000000Y-130000000D01*
%TO.N,Net-(RZ1-GP12)*%
X24475000Y-152540000D02*
X120540000Y-152540000D01*
X134000000Y-166000000D02*
X248000000Y-166000000D01*
X120540000Y-152540000D02*
X134000000Y-166000000D01*
%TO.N,Net-(RZ1-GP8)*%
X129000000Y-140000000D02*
X129000000Y-152000000D01*
X271000000Y-77000000D02*
X261300000Y-67300000D01*
X271000000Y-152000000D02*
X271000000Y-77000000D01*
X129000000Y-152000000D02*
X137000000Y-160000000D01*
X261300000Y-67300000D02*
X254130000Y-67300000D01*
X22885000Y-138115000D02*
X25000000Y-136000000D01*
X263000000Y-160000000D02*
X271000000Y-152000000D01*
X25000000Y-136000000D02*
X125000000Y-136000000D01*
X125000000Y-136000000D02*
X129000000Y-140000000D01*
X137000000Y-160000000D02*
X263000000Y-160000000D01*
X22885000Y-141000000D02*
X22885000Y-138115000D01*
%TO.N,Net-(RZ1-GP27)*%
X260000000Y-37000000D02*
X259950000Y-37050000D01*
X20000000Y-170000000D02*
X256000000Y-170000000D01*
X15265000Y-159000000D02*
X15265000Y-165265000D01*
X256000000Y-170000000D02*
X273000000Y-153000000D01*
X15265000Y-165265000D02*
X20000000Y-170000000D01*
X273000000Y-50000000D02*
X260000000Y-37000000D01*
X259950000Y-37050000D02*
X197000000Y-37050000D01*
X273000000Y-153000000D02*
X273000000Y-50000000D01*
%TO.N,Net-(RZ1-GP4)*%
X12725000Y-141000000D02*
X12725000Y-133275000D01*
X18000000Y-128000000D02*
X125000000Y-128000000D01*
X12725000Y-133275000D02*
X18000000Y-128000000D01*
%TO.N,Net-(RZ1-GP0)*%
X14000000Y-120000000D02*
X23000000Y-120000000D01*
X2565000Y-141000000D02*
X2565000Y-131435000D01*
X147000000Y-46000000D02*
X155000000Y-54000000D01*
X171000000Y-54000000D02*
X174130000Y-50870000D01*
X29000000Y-114000000D02*
X29000000Y-54000000D01*
X2565000Y-131435000D02*
X14000000Y-120000000D01*
X29000000Y-54000000D02*
X37000000Y-46000000D01*
X23000000Y-120000000D02*
X29000000Y-114000000D01*
X37000000Y-46000000D02*
X147000000Y-46000000D01*
X155000000Y-54000000D02*
X171000000Y-54000000D01*
X174130000Y-50870000D02*
X174130000Y-46300000D01*
%TO.N,Net-(RZ1-GP1)*%
X31000000Y-92000000D02*
X31000000Y-115000000D01*
X5105000Y-131895000D02*
X5105000Y-141000000D01*
X31000000Y-115000000D02*
X24000000Y-122000000D01*
X45000000Y-78000000D02*
X31000000Y-92000000D01*
X15000000Y-122000000D02*
X5105000Y-131895000D01*
X24000000Y-122000000D02*
X15000000Y-122000000D01*
%TO.N,Net-(RZ1-GP2)*%
X155000000Y-156000000D02*
X159130000Y-151870000D01*
X16000000Y-124000000D02*
X125000000Y-124000000D01*
X7645000Y-141000000D02*
X7645000Y-132355000D01*
X7645000Y-132355000D02*
X16000000Y-124000000D01*
X159130000Y-151870000D02*
X159130000Y-138300000D01*
X125000000Y-124000000D02*
X135000000Y-134000000D01*
X139000000Y-156000000D02*
X155000000Y-156000000D01*
X135000000Y-152000000D02*
X139000000Y-156000000D01*
X135000000Y-134000000D02*
X135000000Y-152000000D01*
%TD*%
M02*
