M48
; DRILL file {KiCad 7.0.7} date Sat Sep 16 00:44:29 2023
; FORMAT={-:-/ absolute / inch / decimal}
; #@! TF.CreationDate,2023-09-16T00:44:29+09:00
; #@! TF.GenerationSoftware,Kicad,Pcbnew,7.0.7
; #@! TF.FileFunction,Plated,1,2,PTH
FMAT,2
INCH
; #@! TA.AperFunction,Plated,PTH,ViaDrill
T1C0.0157
; #@! TA.AperFunction,Plated,PTH,ComponentDrill
T2C0.0472
%
G90
G05
T1
X1.4173Y-6.378
X1.5748Y-6.2598
X1.7717Y-3.0709
X3.4646Y-5.1181
X3.8976Y-1.9291
X4.6457Y-4.9606
X4.7244Y-3.937
X4.7244Y-5.7874
X4.7244Y-6.1024
X4.7244Y-6.8504
X4.9213Y-5.0394
X4.9213Y-5.1969
X5.5118Y-4.1339
X6.1024Y-6.7717
X7.4016Y-6.6142
X8.1496Y-6.4567
X8.6614Y-6.8504
X9.252Y-6.378
X9.7638Y-6.5354
T2
X2.3622Y-1.1043
X2.5248Y-0.9961
X3.3071Y-2.9154
X3.3465Y-1.1043
X3.4697Y-2.8071
X3.5091Y-0.9961
X4.3307Y-1.1043
X4.4882Y-2.9154
X4.4933Y-0.9961
X4.6508Y-2.8071
X5.5118Y-3.5059
X5.6744Y-3.3976
X6.1024Y-5.5531
X6.265Y-5.4449
X6.4961Y-4.1358
X6.6535Y-2.9941
X6.6587Y-4.0276
X6.6929Y-1.9311
X6.8161Y-2.8858
X6.8555Y-1.8228
X7.3965Y-4.7146
X7.5591Y-3.6634
X7.5591Y-4.6063
X7.6772Y-2.5217
X7.7217Y-3.5551
X7.7559Y-1.4587
X7.8398Y-2.4134
X7.9185Y-1.3504
X8.6614Y-3.7028
X8.7799Y-2.561
X8.824Y-3.5945
X8.9425Y-2.4528
X9.7638Y-3.8996
X9.8425Y-2.7579
X9.9264Y-3.7913
X10.0051Y-2.6496
T0
M30
