M48
; DRILL file {KiCad 7.0.7} date Sat Sep 16 00:44:29 2023
; FORMAT={-:-/ absolute / inch / decimal}
; #@! TF.CreationDate,2023-09-16T00:44:29+09:00
; #@! TF.GenerationSoftware,Kicad,Pcbnew,7.0.7
; #@! TF.FileFunction,NonPlated,1,2,NPTH
FMAT,2
INCH
; #@! TA.AperFunction,NonPlated,NPTH,ComponentDrill
T1C0.0984
; #@! TA.AperFunction,NonPlated,NPTH,ComponentDrill
T2C0.2362
; #@! TA.AperFunction,NonPlated,NPTH,ComponentDrill
T3C0.2579
%
G90
G05
T1
X2.3622Y-1.0118
X3.3071Y-2.8228
X3.3465Y-1.0118
X4.3307Y-1.0118
X4.4882Y-2.8228
X5.5118Y-3.4134
X6.1024Y-5.4606
X6.4961Y-4.0433
X6.6535Y-2.9016
X6.6929Y-1.8386
X7.3965Y-4.622
X7.5591Y-3.5709
X7.6772Y-2.4291
X7.7559Y-1.3661
X8.6614Y-3.6102
X8.7799Y-2.4685
X9.7638Y-3.8071
X9.8425Y-2.6654
T2
X0.6299Y-0.6299
X0.6299Y-4.1339
X0.6299Y-7.6378
X6.1024Y-0.6299
X6.1024Y-7.6772
X11.5748Y-0.6299
X11.5748Y-4.1339
X11.5748Y-7.6378
T3
X2.3622Y-0.8661
X3.3071Y-2.6772
X3.3465Y-0.8661
X4.3307Y-0.8661
X4.4882Y-2.6772
X5.5118Y-3.2677
X6.1024Y-5.315
X6.4961Y-3.8976
X6.6535Y-2.7559
X6.6929Y-1.6929
X7.3965Y-4.4764
X7.5591Y-3.4252
X7.6772Y-2.2835
X7.7559Y-1.2205
X8.6614Y-3.4646
X8.7799Y-2.3228
X9.7638Y-3.6614
X9.8425Y-2.5197
T0
M30
