%TF.GenerationSoftware,KiCad,Pcbnew,7.0.7*%
%TF.CreationDate,2023-09-16T00:44:10+09:00*%
%TF.ProjectId,StickLess,53746963-6b4c-4657-9373-2e6b69636164,rev?*%
%TF.SameCoordinates,Original*%
%TF.FileFunction,Soldermask,Top*%
%TF.FilePolarity,Negative*%
%FSLAX46Y46*%
G04 Gerber Fmt 4.6, Leading zero omitted, Abs format (unit mm)*
G04 Created by KiCad (PCBNEW 7.0.7) date 2023-09-16 00:44:10*
%MOMM*%
%LPD*%
G01*
G04 APERTURE LIST*
%ADD10C,6.000000*%
%ADD11R,1.600000X3.200000*%
%ADD12R,3.200000X1.600000*%
%ADD13C,6.550000*%
%ADD14C,2.500000*%
%ADD15C,1.800000*%
%ADD16C,2.000000*%
G04 APERTURE END LIST*
D10*
%TO.C,H3*%
X16000000Y-194000000D03*
%TD*%
D11*
%TO.C,RZ1*%
X2565000Y-141000000D03*
X5105000Y-141000000D03*
X7645000Y-141000000D03*
X10185000Y-141000000D03*
X12725000Y-141000000D03*
X15265000Y-141000000D03*
X17805000Y-141000000D03*
X20345000Y-141000000D03*
X22885000Y-141000000D03*
D12*
X24475000Y-144920000D03*
X24475000Y-147460000D03*
X24475000Y-150000000D03*
X24475000Y-152540000D03*
X24475000Y-155080000D03*
D11*
X22885000Y-159000000D03*
X20345000Y-159000000D03*
X17805000Y-159000000D03*
X15265000Y-159000000D03*
X12725000Y-159000000D03*
X10185000Y-159000000D03*
X7645000Y-159000000D03*
X2565000Y-159000000D03*
X5105000Y-159000000D03*
%TD*%
D10*
%TO.C,H8*%
X294000000Y-194000000D03*
%TD*%
%TO.C,H4*%
X155000000Y-16000000D03*
%TD*%
%TO.C,H5*%
X155000000Y-195000000D03*
%TD*%
%TO.C,H7*%
X294000000Y-16000000D03*
%TD*%
D13*
%TO.C,B1(A)1*%
X165000000Y-99000000D03*
D14*
X165000000Y-102700000D03*
D15*
X165000000Y-105050000D03*
D16*
X169130000Y-102300000D03*
%TD*%
D13*
%TO.C,LEFT1*%
X84000000Y-68000000D03*
D14*
X84000000Y-71700000D03*
D15*
X84000000Y-74050000D03*
D16*
X88130000Y-71300000D03*
%TD*%
D10*
%TO.C,H2*%
X16000000Y-105000000D03*
%TD*%
D13*
%TO.C,RIGHT1*%
X140000000Y-83000000D03*
D14*
X140000000Y-86700000D03*
D15*
X140000000Y-89050000D03*
D16*
X144130000Y-86300000D03*
%TD*%
D13*
%TO.C,L1(L)1*%
X220000000Y-88000000D03*
D14*
X220000000Y-91700000D03*
D15*
X220000000Y-94050000D03*
D16*
X224130000Y-91300000D03*
%TD*%
D10*
%TO.C,H1*%
X16000000Y-16000000D03*
%TD*%
D13*
%TO.C,B2(B)1*%
X192000000Y-87000000D03*
D14*
X192000000Y-90700000D03*
D15*
X192000000Y-93050000D03*
D16*
X196130000Y-90300000D03*
%TD*%
D13*
%TO.C,S2(START)1*%
X110000000Y-22000000D03*
D14*
X110000000Y-25700000D03*
D15*
X110000000Y-28050000D03*
D16*
X114130000Y-25300000D03*
%TD*%
D10*
%TO.C,H6*%
X294000000Y-105000000D03*
%TD*%
D13*
%TO.C,L2(LB)1*%
X223010000Y-59000000D03*
D14*
X223010000Y-62700000D03*
D15*
X223010000Y-65050000D03*
D16*
X227140000Y-62300000D03*
%TD*%
D13*
%TO.C,DOWN1*%
X114000000Y-68000000D03*
D14*
X114000000Y-71700000D03*
D15*
X114000000Y-74050000D03*
D16*
X118130000Y-71300000D03*
%TD*%
D13*
%TO.C,S1(BACK)1*%
X170000000Y-43000000D03*
D14*
X170000000Y-46700000D03*
D15*
X170000000Y-49050000D03*
D16*
X174130000Y-46300000D03*
%TD*%
D13*
%TO.C,A2(CAPTURE)1*%
X60000000Y-22000000D03*
D14*
X60000000Y-25700000D03*
D15*
X60000000Y-28050000D03*
D16*
X64130000Y-25300000D03*
%TD*%
D13*
%TO.C,B4(Y)1*%
X195000000Y-58000000D03*
D14*
X195000000Y-61700000D03*
D15*
X195000000Y-64050000D03*
D16*
X199130000Y-61300000D03*
%TD*%
D13*
%TO.C,UP1*%
X155000000Y-135000000D03*
D14*
X155000000Y-138700000D03*
D15*
X155000000Y-141050000D03*
D16*
X159130000Y-138300000D03*
%TD*%
D13*
%TO.C,R3(RS)1*%
X197000000Y-31000000D03*
D14*
X197000000Y-34700000D03*
D15*
X197000000Y-37050000D03*
D16*
X201130000Y-34300000D03*
%TD*%
D13*
%TO.C,R1(R)1*%
X248000000Y-93000000D03*
D14*
X248000000Y-96700000D03*
D15*
X248000000Y-99050000D03*
D16*
X252130000Y-96300000D03*
%TD*%
D13*
%TO.C,A1(GUIDE)1*%
X85000000Y-22000000D03*
D14*
X85000000Y-25700000D03*
D15*
X85000000Y-28050000D03*
D16*
X89130000Y-25300000D03*
%TD*%
D13*
%TO.C,L3(LS)1*%
X187870000Y-113700000D03*
D14*
X187870000Y-117400000D03*
D15*
X187870000Y-119750000D03*
D16*
X192000000Y-117000000D03*
%TD*%
D13*
%TO.C,R2(RB)1*%
X250000000Y-64000000D03*
D14*
X250000000Y-67700000D03*
D15*
X250000000Y-70050000D03*
D16*
X254130000Y-67300000D03*
%TD*%
D13*
%TO.C,B3(X)1*%
X169000000Y-70000000D03*
D14*
X169000000Y-73700000D03*
D15*
X169000000Y-76050000D03*
D16*
X173130000Y-73300000D03*
%TD*%
M02*
