0
SECTION
2
HEADER
9
$INSUNITS
70
4
9
$ACADVER
1
AC1014
9
$HANDSEED
5
FFFF
0
ENDSEC
0
SECTION
2
TABLES
0
TABLE
2
VPORT
5
8
100
AcDbSymbolTable
0
ENDTAB
0
TABLE
2
LTYPE
5
5
100
AcDbSymbolTable
0
LTYPE
5
14
100
AcDbSymbolTableRecord
100
AcDbLinetypeTableRecord
2
BYBLOCK
70
0
0
LTYPE
5
15
100
AcDbSymbolTableRecord
100
AcDbLinetypeTableRecord
2
BYLAYER
70
0
0
ENDTAB
0
TABLE
2
LAYER
5
2
100
AcDbSymbolTable
70
2
0
LAYER
5
50
100
AcDbSymbolTableRecord
100
AcDbLayerTableRecord
2
0
70
0
6
CONTINUOUS
0
ENDTAB
0
TABLE
2
STYLE
5
3
100
AcDbSymbolTable
70
1
0
STYLE
5
11
100
AcDbSymbolTableRecord
100
AcDbTextStyleTableRecord
2
STANDARD
70
0
0
ENDTAB
0
TABLE
2
VIEW
5
6
100
AcDbSymbolTable
70
0
0
ENDTAB
0
TABLE
2
UCS
5
7
100
AcDbSymbolTable
70
0
0
ENDTAB
0
TABLE
2
APPID
5
9
100
AcDbSymbolTable
70
2
0
APPID
5
12
100
AcDbSymbolTableRecord
100
AcDbRegAppTableRecord
2
ACAD
70
0
0
ENDTAB
0
TABLE
2
DIMSTYLE
5
A
100
AcDbSymbolTable
70
1
0
ENDTAB
0
TABLE
2
BLOCK_RECORD
5
1
100
AcDbSymbolTable
70
1
0
BLOCK_RECORD
5
1F
100
AcDbSymbolTableRecord
100
AcDbBlockTableRecord
2
*MODEL_SPACE
0
BLOCK_RECORD
5
1B
100
AcDbSymbolTableRecord
100
AcDbBlockTableRecord
2
*PAPER_SPACE
0
ENDTAB
0
ENDSEC
0
SECTION
2
BLOCKS
0
BLOCK
5
20
100
AcDbEntity
100
AcDbBlockBegin
2
*MODEL_SPACE
0
ENDBLK
5
21
100
AcDbEntity
100
AcDbBlockEnd
0
BLOCK
5
1C
100
AcDbEntity
100
AcDbBlockBegin
2
*PAPER_SPACE
0
ENDBLK
5
1D
100
AcDbEntity
100
AcDbBlockEnd
0
ENDSEC
0
SECTION
2
ENTITIES
0
CIRCLE
5
100
100
AcDbEntity
8
0
100
AcDbCircle
10
-16.000000238418568
20
105.00000312924385
30
0
40
3.0000000000000004
210
0
220
-0
230
1
0
CIRCLE
5
101
100
AcDbEntity
8
0
100
AcDbCircle
10
-16.000000238418568
20
16.00000312924384
30
0
40
3.0000000000000004
210
0
220
-0
230
1
0
CIRCLE
5
102
100
AcDbEntity
8
0
100
AcDbCircle
10
-16.000000238418568
20
194.00000312924385
30
0
40
3.0000000000000004
210
0
220
-0
230
1
0
CIRCLE
5
103
100
AcDbEntity
8
0
100
AcDbCircle
10
-294.00000023841864
20
16.00000312924384
30
0
40
3.0000000000000071
210
0
220
-0
230
1
0
CIRCLE
5
104
100
AcDbEntity
8
0
100
AcDbCircle
10
-155.00000023841858
20
16.00000312924384
30
0
40
3.0000000000000071
210
0
220
-0
230
1
0
CIRCLE
5
105
100
AcDbEntity
8
0
100
AcDbCircle
10
-155.00000023841858
20
194.00000312924385
30
0
40
3.0000000000000071
210
0
220
-0
230
1
0
CIRCLE
5
106
100
AcDbEntity
8
0
100
AcDbCircle
10
-294.00000023841864
20
105.00000312924385
30
0
40
3.0000000000000071
210
0
220
-0
230
1
0
CIRCLE
5
107
100
AcDbEntity
8
0
100
AcDbCircle
10
-294.00000023841864
20
194.00000312924385
30
0
40
3.0000000000000071
210
0
220
-0
230
1
0
ARC
5
108
100
AcDbEntity
8
0
100
AcDbCircle
10
-16.000000238418568
20
16.00000312924384
30
0
40
15.999999999999989
210
0
220
0
230
1
100
AcDbArc
50
-90.000000000000057
51
0
0
ARC
5
109
100
AcDbEntity
8
0
100
AcDbCircle
10
-16.000000238418568
20
194.00000312924385
30
0
40
15.999999999999989
210
0
220
0
230
1
100
AcDbArc
50
0
51
90.000000000000014
0
LINE
5
110
100
AcDbEntity
8
0
100
AcDbLine
10
-16.000000238418576
20
210.00000312924382
30
0
11
-294.00000023841858
21
210.00000312924388
31
0
0
ARC
5
111
100
AcDbEntity
8
0
100
AcDbCircle
10
-294.00000023841864
20
194.00000312924385
30
0
40
16.00000000000005
210
0
220
-0
230
1
100
AcDbArc
50
89.999999999999801
51
180
0
LINE
5
112
100
AcDbEntity
8
0
100
AcDbLine
10
-310.00000023841858
20
194.00000312924391
30
0
11
-310.00000023841858
21
16.000003129243865
31
0
0
ARC
5
113
100
AcDbEntity
8
0
100
AcDbCircle
10
-294.00000023841864
20
16.00000312924384
30
0
40
15.999999999999943
210
0
220
0
230
1
100
AcDbArc
50
180
51
270.00000000000023
0
LINE
5
114
100
AcDbEntity
8
0
100
AcDbLine
10
-294.00000023841858
20
3.129243903998713e-06
30
0
11
-16.000000238418583
21
3.1292438507080078e-06
31
0
0
LINE
5
115
100
AcDbEntity
8
0
100
AcDbLine
10
-2.3841857821338408e-07
20
16.000003129243847
30
0
11
-2.3841857821338408e-07
21
136.00000312924385
31
0
0
LINE
5
116
100
AcDbEntity
8
0
100
AcDbLine
10
-2.3841857821338408e-07
20
136.00000312924385
30
0
11
-30.000000238418579
21
136.00000312924385
31
0
0
LINE
5
117
100
AcDbEntity
8
0
100
AcDbLine
10
-30.000000238418579
20
136.00000312924385
30
0
11
-30.000000238418579
21
164.00000312924385
31
0
0
LINE
5
118
100
AcDbEntity
8
0
100
AcDbLine
10
-30.000000238418579
20
164.00000312924385
30
0
11
-2.3841857838258145e-07
21
164.00000312924385
31
0
0
LINE
5
119
100
AcDbEntity
8
0
100
AcDbLine
10
-2.3841857838258145e-07
20
164.00000312924385
30
0
11
-2.3841857821338408e-07
21
194.00000312924385
31
0
0
LWPOLYLINE
5
120
100
AcDbEntity
8
0
100
AcDbPolyline
90
4
70
1
43
0.0
10
-50.00000074505806
20
12.00000312924386
10
-70.00000074505806
20
12.00000312924386
10
-70.00000074505806
20
32.000003129243858
10
-50.00000074505806
20
32.000003129243858
0
LWPOLYLINE
5
121
100
AcDbEntity
8
0
100
AcDbPolyline
90
4
70
1
43
0.0
10
-95.00000074505806
20
32.000003129243858
10
-75.00000074505806
20
32.000003129243858
10
-75.00000074505806
20
12.00000312924386
10
-95.00000074505806
20
12.00000312924386
0
LWPOLYLINE
5
122
100
AcDbEntity
8
0
100
AcDbPolyline
90
4
70
1
43
0.0
10
-100.00000074505806
20
32.000003129243858
10
-100.00000074505806
20
12.00000312924386
10
-120.00000074505806
20
12.00000312924386
10
-120.00000074505806
20
32.000003129243858
0
CIRCLE
5
123
100
AcDbEntity
8
0
100
AcDbCircle
10
-84.000000238418579
20
68.000003129243879
30
0
40
11.999999999999995
210
0
220
0
230
1
0
CIRCLE
5
124
100
AcDbEntity
8
0
100
AcDbCircle
10
-114.00000023841858
20
68.000003129243879
30
0
40
11.999999999999995
210
0
220
0
230
1
0
CIRCLE
5
125
100
AcDbEntity
8
0
100
AcDbCircle
10
-140.00000023841858
20
83.000003129243908
30
0
40
11.999999999999995
210
0
220
0
230
1
0
CIRCLE
5
126
100
AcDbEntity
8
0
100
AcDbCircle
10
-155.00000023841858
20
135.00000312924385
30
0
40
15
210
0
220
0
230
1
0
CIRCLE
5
127
100
AcDbEntity
8
0
100
AcDbCircle
10
-170.00000023841858
20
43.000003129243886
30
0
40
11.999999999999995
210
0
220
0
230
1
0
CIRCLE
5
128
100
AcDbEntity
8
0
100
AcDbCircle
10
-197.00000023841855
20
31.000003129243883
30
0
40
11.999999999999995
210
0
220
0
230
1
0
CIRCLE
5
129
100
AcDbEntity
8
0
100
AcDbCircle
10
-169.00000023841855
20
70.000003129243879
30
0
40
11.999999999999995
210
0
220
0
230
1
0
CIRCLE
5
130
100
AcDbEntity
8
0
100
AcDbCircle
10
-195.00000023841858
20
58.000003129243886
30
0
40
11.999999999999995
210
0
220
0
230
1
0
CIRCLE
5
131
100
AcDbEntity
8
0
100
AcDbCircle
10
-165.00000023841858
20
99.000003129243893
30
0
40
11.999999999999995
210
0
220
0
230
1
0
CIRCLE
5
132
100
AcDbEntity
8
0
100
AcDbCircle
10
-192.00000023841855
20
87.000003129243879
30
0
40
11.999999999999995
210
0
220
0
230
1
0
CIRCLE
5
133
100
AcDbEntity
8
0
100
AcDbCircle
10
-223.00000023841858
20
59.000003129243879
30
0
40
11.999999999999995
210
0
220
0
230
1
0
CIRCLE
5
134
100
AcDbEntity
8
0
100
AcDbCircle
10
-250.00000023841858
20
64.000003129243879
30
0
40
11.999999999999995
210
0
220
0
230
1
0
CIRCLE
5
135
100
AcDbEntity
8
0
100
AcDbCircle
10
-220.00000023841858
20
88.000003129243893
30
0
40
11.999999999999995
210
0
220
0
230
1
0
CIRCLE
5
136
100
AcDbEntity
8
0
100
AcDbCircle
10
-248.00000023841858
20
93.000003129243893
30
0
40
11.999999999999995
210
0
220
0
230
1
0
CIRCLE
5
137
100
AcDbEntity
8
0
100
AcDbCircle
10
-187.87000023841856
20
113.70000312924388
30
0
40
11.999999999999995
210
0
220
0
230
1
0
ENDSEC
0
SECTION
2
OBJECTS
0
DICTIONARY
5
C
100
AcDbDictionary
3
ACAD_GROUP
350
D
3
ACAD_MLINESTYLE
350
17
0
DICTIONARY
5
D
100
AcDbDictionary
0
DICTIONARY
5
1A
330
C
100
AcDbDictionary
0
DICTIONARY
5
17
100
AcDbDictionary
0
ENDSEC
0
EOF
